<svg width="20" height="20" viewBox="0 0 20 20" fill="none" xmlns="http://www.w3.org/2000/svg">
<path fill-rule="evenodd" clip-rule="evenodd" d="M11 5.83333C11 5.28104 10.5523 4.83333 10 4.83333C9.44771 4.83333 9 5.28104 9 5.83333V9H5.83333C5.28104 9 4.83333 9.44771 4.83333 10C4.83333 10.5523 5.28104 11 5.83333 11H9V14.1667C9 14.7189 9.44771 15.1667 10 15.1667C10.5523 15.1667 11 14.7189 11 14.1667V11H14.1667C14.7189 11 15.1667 10.5523 15.1667 10C15.1667 9.44771 14.7189 9 14.1667 9H11V5.83333Z" fill="#353945"/>
</svg>
