<svg width="11" height="11" viewBox="0 0 11 11" fill="none" xmlns="http://www.w3.org/2000/svg">
<path d="M0.318956 9.35548L0.307956 9.36648C0.159457 9.04198 0.0659569 8.67348 0.027457 8.26648C0.0659569 8.66798 0.170457 9.03098 0.318956 9.35548Z" fill="white"/>
<path d="M3.84999 4.60901C4.57293 4.60901 5.15899 4.02295 5.15899 3.30001C5.15899 2.57708 4.57293 1.99102 3.84999 1.99102C3.12705 1.99102 2.541 2.57708 2.541 3.30001C2.541 4.02295 3.12705 4.60901 3.84999 4.60901Z" fill="white"/>
<path d="M7.80448 0H3.19549C1.1935 0 0 1.1935 0 3.19549V7.80448C0 8.40398 0.1045 8.92648 0.307999 9.36648C0.780998 10.4115 1.793 11 3.19549 11H7.80448C9.80648 11 11 9.80648 11 7.80448V6.54499V3.19549C11 1.1935 9.80648 0 7.80448 0ZM10.1035 5.77499C9.67448 5.40649 8.98148 5.40649 8.55248 5.77499L6.26449 7.73848C5.83549 8.10698 5.14249 8.10698 4.71349 7.73848L4.52649 7.58449C4.13599 7.24349 3.51449 7.21049 3.07449 7.50748L1.0175 8.88798C0.896498 8.57998 0.824998 8.22248 0.824998 7.80448V3.19549C0.824998 1.6445 1.6445 0.824998 3.19549 0.824998H7.80448C9.35548 0.824998 10.175 1.6445 10.175 3.19549V5.83549L10.1035 5.77499Z" fill="white"/>
</svg>
