<svg width="11" height="3" viewBox="0 0 11 3" fill="none" xmlns="http://www.w3.org/2000/svg">
<path d="M1.22222 0C0.55 0 0 0.55 0 1.22222C0 1.89444 0.55 2.44444 1.22222 2.44444C1.89444 2.44444 2.44444 1.89444 2.44444 1.22222C2.44444 0.55 1.89444 0 1.22222 0ZM9.77778 0C9.10556 0 8.55555 0.55 8.55555 1.22222C8.55555 1.89444 9.10556 2.44444 9.77778 2.44444C10.45 2.44444 11 1.89444 11 1.22222C11 0.55 10.45 0 9.77778 0ZM5.5 0C4.82778 0 4.27778 0.55 4.27778 1.22222C4.27778 1.89444 4.82778 2.44444 5.5 2.44444C6.17222 2.44444 6.72222 1.89444 6.72222 1.22222C6.72222 0.55 6.17222 0 5.5 0Z" fill="#B1B5C4"/>
</svg>
