<svg width="12" height="13" viewBox="0 0 12 13" fill="none" xmlns="http://www.w3.org/2000/svg">
<path d="M12 10.0155C12 10.3409 11.7362 10.6047 11.4109 10.6047H0.589148C0.26377 10.6047 0 10.3409 0 10.0155C0 9.69013 0.26377 9.42636 0.589147 9.42636H0.6V5.32059C0.6 2.38192 3.018 0 6 0C8.982 0 11.4 2.38192 11.4 5.32059V9.42636H11.4109C11.7362 9.42636 12 9.69013 12 10.0155ZM1.8 9.42636H10.2V5.32059C10.2 3.03293 8.3196 1.17829 6 1.17829C3.6804 1.17829 1.8 3.03293 1.8 5.32059V9.42636ZM4.83101 12.1167C4.48109 11.6894 4.94772 11.1938 5.5 11.1938H6.5C7.05229 11.1938 7.51891 11.6894 7.16899 12.1167C7.13524 12.1579 7.0991 12.1975 7.06066 12.2353C6.77936 12.5115 6.39782 12.6667 6 12.6667C5.60218 12.6667 5.22064 12.5115 4.93934 12.2353C4.9009 12.1975 4.86476 12.1579 4.83101 12.1167Z" fill="#3772FF"/>
</svg>
